# xmcd
#
# Track frame offsets:
#	182
#	62867
#	111412
#	164282
#	217932
#	244357
#	259357
#
# Disc length: 3788 seconds
#
# Revision: 1
# Processed by: cddbd v1.5.1PL0 Copyright (c) Steve Scherf et al.
# Submitted via: CDex 1.50Beta5
#
DISCID=690eca07
DTITLE=ブラVnソナタ - ブラVnソナタ
DYEAR=1900
DGENRE=Classical
TTITLE0=Sonata for Piano and Violin No1 in G major op78 - Vivace ma non troppo
TTITLE1=Sonata for Piano and Violin No1 in G major op78 - Adagio
TTITLE2=同アレグロ
TTITLE3=第3番アレグロ
TTITLE4=同アダージョ
TTITLE5=同プレスト
TTITLE6=Sonata for Piano and Violin No3 in D Minor op108 - Presto agitato
EXTD=
EXTT0=
EXTT1=
EXTT2=
EXTT3=
EXTT4=
EXTT5=
EXTT6=
PLAYORDER=
